<?xml version="1.0" standalone="no"?>
<!DOCTYPE svg PUBLIC "-//W3C//DTD SVG 20010904//EN"
 "http://www.w3.org/TR/2001/REC-SVG-20010904/DTD/svg10.dtd">
<svg version="1.0" xmlns="http://www.w3.org/2000/svg"
 width="16.000000pt" height="16.000000pt" viewBox="0 0 16.000000 16.000000"
 preserveAspectRatio="xMidYMid meet">
<metadata>
Created by potrace 1.11, written by Peter Selinger 2001-2013
</metadata>
<g transform="translate(0.000000,16.000000) scale(0.002286,-0.002286)"
fill="#000000" stroke="none">
<path d="M2528 6995 c-2 -1 -32 -6 -68 -9 -68 -6 -111 -12 -170 -21 -70 -11
-96 -16 -160 -31 -36 -9 -73 -17 -84 -19 -38 -8 -133 -37 -211 -65 -322 -113
-571 -252 -840 -469 -84 -67 -298 -278 -352 -346 -18 -22 -52 -65 -76 -95
-172 -214 -337 -528 -433 -820 -26 -76 -74 -259 -79 -295 -1 -11 -8 -49 -14
-85 -7 -36 -14 -76 -16 -89 -30 -177 -27 -578 6 -781 6 -36 13 -78 16 -95 41
-255 166 -593 316 -855 48 -84 179 -278 221 -328 197 -237 393 -420 594 -555
384 -259 735 -393 1212 -461 164 -24 544 -24 665 0 11 2 41 6 66 9 25 3 54 7
65 9 137 28 193 41 269 62 283 78 556 206 807 378 l91 62 997 -997 998 -997
268 269 c148 148 270 273 272 279 2 5 -442 455 -987 1000 -545 545 -991 997
-991 1005 0 8 4 16 10 20 27 17 168 249 245 404 79 159 170 403 191 511 3 14
11 50 19 80 12 47 28 130 40 205 36 223 36 555 0 805 -26 174 -105 476 -155
585 -5 11 -30 68 -55 127 -171 390 -460 759 -810 1033 -339 265 -769 458
-1185 531 -25 4 -47 8 -50 9 -3 1 -32 5 -65 9 -33 4 -73 9 -90 12 -34 6 -472
14 -477 9z m462 -789 c121 -23 155 -30 240 -53 158 -41 322 -110 470 -196 76
-45 166 -103 180 -117 3 -3 25 -21 50 -40 25 -19 63 -50 84 -70 421 -381 651
-896 650 -1455 0 -96 -11 -254 -19 -285 -2 -8 -6 -33 -10 -55 -22 -150 -80
-325 -172 -524 -68 -146 -220 -358 -355 -494 -114 -115 -187 -175 -315 -260
-84 -57 -308 -177 -328 -177 -4 0 -21 -6 -38 -14 -189 -82 -481 -135 -722
-130 -207 4 -339 23 -540 78 -196 55 -498 212 -647 338 -15 13 -40 33 -55 45
-77 60 -219 211 -298 318 -204 274 -332 595 -373 930 -9 79 -9 394 1 470 36
291 131 555 290 807 30 47 59 92 65 100 145 179 178 215 283 307 151 132 273
213 444 296 195 94 355 144 580 179 82 13 467 14 535 2z"/>
</g>
</svg>
